<svg version="1.2" xmlns="http://www.w3.org/2000/svg" viewBox="0 0 840 880" width="840" height="880">
	<title>logo_login-svg</title>
	<style>
		.s0 { fill: #000000 } 
	</style>
	<g id="Layer" style="opacity: .5">
		<path id="Layer" fill-rule="evenodd" class="s0" d="m460.5 42c46.9 5 93 18.5 135.3 39.5 124.5 61.9 207.2 180.8 222.4 319.5 1.6 15.3 1.7 62.2 0 77.5-10.3 94.2-49.9 177.2-116.2 243.5-78.4 78.5-184.3 121-292.5 117.7-23.1-0.8-34.2-1.8-55-5.3-81.3-13.6-157-52.8-216.5-112.4-66-66-106.4-150.5-116.2-243-1.7-16.4-1.7-61.8 0-78 10-93 50.2-177 116.2-243 54.9-54.9 123.8-92.8 198-108.9 15-3.3 31.5-5.8 45-7 6.9-0.6 14.1-1.3 16-1.5 6.4-0.7 53.4 0.3 63.5 1.4zm-71.4 32.1c-56 4.9-111.6 23.1-158.9 51.7-113.6 69-180.6 191.8-176.9 324.2 1.1 37 6.3 67.3 17.3 101.3 18.1 55.5 47.2 102.7 89.5 144.9 9.2 9.3 17.1 16.8 17.7 16.8 0.5 0 1.2-5.3 1.5-11.8 1.1-21.8 6.2-46.6 13.7-67.2 7.8-21.5 23.1-48.3 38.5-67.5 9.6-11.9 29.6-31.2 42-40.6 21.4-16.1 46.6-29.3 71.1-37.4l14.1-4.7-10.6-5.4c-42.4-21.5-75-66.2-84.8-115.9-2.7-13.7-2.4-41.4 0.5-56.2 6.5-32.4 20.7-59 44.1-82.3 19.1-19 37.8-30.7 62.8-39 17.8-5.9 27.7-7.4 49.3-7.4 15.2 0 20.5 0.4 29.7 2.2 21.7 4.3 44.2 14 62 26.5 11.3 7.9 30.1 26.7 38 38 33.3 47.3 38.3 109.2 13.2 162.6-14.9 31.7-42.1 58.9-72.5 72.6l-9.4 4.2 12.3 4.2c6.7 2.4 19.4 7.8 28.2 12.1 27.2 13.2 47.9 28.1 69.6 50 41.9 42.3 66.1 95.2 69.5 151.8 0.4 6.2 1.1 11.2 1.5 11.2 1.7 0 33.7-32.8 42.1-43 45.8-56.3 71.8-117.9 81-192 1.7-13.8 1.7-61.9 0-76.5-3.2-26.9-9-53.8-16.7-77-39.8-119.6-138.8-211.1-260.8-240.9-15.3-3.8-26.8-5.9-44.2-8.2-13.4-1.8-60-2.6-74.4-1.3z"/>
	</g>
</svg>