<svg version="1.2" xmlns="http://www.w3.org/2000/svg" viewBox="0 0 2400 2400" width="2400" height="2400">
	<title>nike_logo-svg</title>
	<style>
		.s0 { opacity: .5;fill: #000000 } 
	</style>
	<g id="Layer">
		<path id="Layer" class="s0" d="m2150 865.4c-22.4 6.2-289.1 78.4-360 97.6-26.1 7.1-82.4 22.3-125 33.9-42.6 11.5-96.6 26.1-120 32.5-23.4 6.3-125.7 34-227.5 61.6-101.7 27.6-217.4 58.9-257 69.6-39.6 10.7-87.5 23.7-106.5 28.9-19 5.2-43 11.7-53.5 14.5-10.4 2.8-45.3 12.3-77.5 21-32.2 8.7-63 17-68.5 18.4-30.4 7.6-68.8 10.5-99.1 7.5-66.2-6.5-119.8-37.2-148.8-85.2-17.1-28.4-25.8-65.6-24.3-104.7 1.9-49.3 15-96.3 45.1-161.3 1.9-4.2 3.4-7.7 3.2-7.7-0.2 0-6.4 7.3-13.8 16.2-122.3 147.4-199.9 282.8-220.6 385.3-4.7 22.8-5.6 32.3-5.6 55.5 0 17.1 0.4 24.8 1.7 32 9.3 50.9 31.7 83.1 80.2 115.5 32.5 21.7 67.6 34.9 110 41.2 16.6 2.5 64.1 2.5 83 0 53.7-7.1 103.6-21.5 183.5-53.2 51.1-20.2 255.4-107.6 572.5-244.8 28.6-12.4 72-31.1 96.5-41.7 84.6-36.5 111.1-48 261-113 82.8-35.9 165.4-71.7 183.5-79.5 113.9-49.2 306.4-132.9 310.5-135 9.6-4.9 10.2-10.6 1.1-10.4-2.5 0-13.4 2.4-24.1 5.3z"/>
	</g>
</svg>