<?xml version="1.0" standalone="no"?>
<!DOCTYPE svg PUBLIC "-//W3C//DTD SVG 20010904//EN"
 "http://www.w3.org/TR/2001/REC-SVG-20010904/DTD/svg10.dtd">
<svg version="1.0" xmlns="http://www.w3.org/2000/svg"
 width="840.000000pt" height="880.000000pt" viewBox="0 0 840.000000 880.000000"
 preserveAspectRatio="xMidYMid meet">

<g transform="translate(0.000000,880.000000) scale(0.100000,-0.100000)"
fill="#000000" stroke="none">
<path d="M3970 8394 c-19 -2 -91 -9 -160 -15 -135 -12 -300 -37 -450 -70 -742
-161 -1431 -540 -1980 -1089 -660 -660 -1062 -1500 -1162 -2430 -17 -162 -17
-616 0 -780 98 -925 502 -1770 1162 -2430 595 -596 1352 -988 2165 -1124 208
-35 319 -45 550 -53 1082 -33 2141 392 2925 1177 663 663 1059 1493 1162 2435
17 153 16 622 0 775 -152 1387 -979 2576 -2224 3195 -423 210 -884 345 -1353
395 -101 11 -571 21 -635 14z m665 -348 c174 -23 289 -44 442 -82 1220 -298
2210 -1213 2608 -2409 77 -232 135 -501 167 -770 17 -146 17 -627 0 -765 -92
-741 -352 -1357 -810 -1920 -84 -102 -404 -430 -421 -430 -4 0 -11 50 -15 112
-34 566 -276 1095 -695 1518 -217 219 -424 368 -696 500 -88 43 -215 97 -282
121 l-123 42 94 42 c304 137 576 409 725 726 251 534 201 1153 -132 1626 -79
113 -267 301 -380 380 -178 125 -403 222 -620 265 -92 18 -145 22 -297 22
-216 0 -315 -15 -493 -74 -250 -83 -437 -200 -628 -390 -234 -233 -376 -499
-441 -823 -29 -148 -32 -425 -5 -562 98 -497 424 -944 848 -1159 l106 -54
-141 -47 c-245 -81 -497 -213 -711 -374 -124 -94 -324 -287 -420 -406 -154
-192 -307 -460 -385 -675 -75 -206 -126 -454 -137 -672 -3 -65 -10 -118 -15
-118 -6 0 -85 75 -177 168 -423 422 -714 894 -895 1449 -110 340 -162 643
-173 1013 -37 1324 633 2552 1769 3242 473 286 1029 468 1589 517 144 13 610
5 744 -13z"/>
</g>
</svg>
