<?xml version="1.0" standalone="no"?>
<!DOCTYPE svg PUBLIC "-//W3C//DTD SVG 20010904//EN"
 "http://www.w3.org/TR/2001/REC-SVG-20010904/DTD/svg10.dtd">
<svg version="1.0" xmlns="http://www.w3.org/2000/svg"
 width="2400.000000pt" height="2400.000000pt" viewBox="0 0 2400.000000 2400.000000"
 preserveAspectRatio="xMidYMid meet">

<g transform="translate(0.000000,2400.000000) scale(0.100000,-0.100000)"
fill="#000000" stroke="none">
<path d="M21500 15346 c-224 -62 -2891 -784 -3600 -976 -261 -71 -824 -223
-1250 -339 -426 -115 -966 -261 -1200 -325 -234 -63 -1257 -340 -2275 -616
-1017 -276 -2174 -589 -2570 -696 -396 -107 -875 -237 -1065 -289 -190 -52
-430 -117 -535 -145 -104 -28 -453 -123 -775 -210 -322 -87 -630 -170 -685
-184 -304 -76 -688 -105 -991 -75 -662 65 -1198 372 -1488 852 -171 284 -258
656 -243 1047 19 493 150 963 451 1613 19 42 34 77 32 77 -2 0 -64 -73 -138
-162 -1223 -1474 -1999 -2828 -2206 -3853 -47 -228 -56 -323 -56 -555 0 -171
4 -248 17 -320 93 -509 317 -831 802 -1155 325 -217 676 -349 1100 -412 166
-25 641 -25 830 0 537 71 1036 215 1835 532 511 202 2554 1076 5725 2448 286
124 720 311 965 417 846 365 1111 480 2610 1130 828 359 1654 717 1835 795
1139 492 3064 1329 3105 1350 96 49 102 106 11 104 -25 0 -134 -24 -241 -53z"/>
</g>
</svg>
